<?xml version="1.0" encoding="UTF-8" standalone="no"?>
<!-- Created with Inkscape (http://www.inkscape.org/) -->

<svg
   xmlns:dc="http://purl.org/dc/elements/1.1/"
   xmlns:cc="http://creativecommons.org/ns#"
   xmlns:rdf="http://www.w3.org/1999/02/22-rdf-syntax-ns#"
   xmlns:svg="http://www.w3.org/2000/svg"
   xmlns="http://www.w3.org/2000/svg"
   xmlns:sodipodi="http://sodipodi.sourceforge.net/DTD/sodipodi-0.dtd"
   xmlns:inkscape="http://www.inkscape.org/namespaces/inkscape"
   width="297mm"
   height="210mm"
   id="svg10420"
   version="1.1"
   inkscape:version="0.48.4 r9939"
   sodipodi:docname="herfbar_final.pdf">
  <defs
     id="defs10422">
    <clipPath
       clipPathUnits="userSpaceOnUse"
       id="clipPath3021">
      <path
         inkscape:connector-curvature="0"
         d="m 115.64,37.28 606.96,0 0,467.51 -606.96,0 0,-467.51 z"
         id="path3023" />
    </clipPath>
  </defs>
  <sodipodi:namedview
     inkscape:document-units="mm"
     pagecolor="#ffffff"
     bordercolor="#666666"
     borderopacity="1.0"
     inkscape:pageopacity="0.0"
     inkscape:pageshadow="2"
     inkscape:zoom="0.86831672"
     inkscape:cx="497.46753"
     inkscape:cy="396.7957"
     inkscape:current-layer="layer1"
     id="namedview10424"
     showgrid="false"
     inkscape:window-width="1920"
     inkscape:window-height="1018"
     inkscape:window-x="-8"
     inkscape:window-y="-8"
     inkscape:window-maximized="1" />
  <metadata
     id="metadata10426">
    <rdf:RDF>
      <cc:Work
         rdf:about="">
        <dc:format>image/svg+xml</dc:format>
        <dc:type
           rdf:resource="http://purl.org/dc/dcmitype/StillImage" />
        <dc:title></dc:title>
      </cc:Work>
    </rdf:RDF>
  </metadata>
  <g
     inkscape:label="Layer 1"
     inkscape:groupmode="layer"
     id="layer1">
    <g
       transform="matrix(1.25,0,0,-1.25,22.577582,734.83987)"
       id="g3017">
      <g
         id="g3019"
         clip-path="url(#clipPath3021)">
        <path
           inkscape:connector-curvature="0"
           d="m 115.64,42.22 339.78,0 0,29.63 -339.78,0 0,-29.63 z"
           style="fill:#00a6ff;fill-opacity:1;fill-rule:nonzero;stroke:none"
           id="path3025" />
        <path
           inkscape:connector-curvature="0"
           d="m 115.64,75.14 340.83,0 0,29.63 -340.83,0 0,-29.63 z"
           style="opacity:0.5;fill:#00a6ff;fill-opacity:1;fill-rule:nonzero;stroke:none"
           id="path3027" />
        <path
           inkscape:connector-curvature="0"
           d="m 115.64,108.07 340.85,0 0,29.63 -340.85,0 0,-29.63 z"
           style="opacity:0.5;fill:#00a6ff;fill-opacity:1;fill-rule:nonzero;stroke:none"
           id="path3029" />
        <path
           inkscape:connector-curvature="0"
           d="m 115.64,140.99 348.05,0 0,29.63 -348.05,0 0,-29.63 z"
           style="opacity:0.5;fill:#00a6ff;fill-opacity:1;fill-rule:nonzero;stroke:none"
           id="path3031" />
        <path
           inkscape:connector-curvature="0"
           d="m 115.64,173.92 359.02,0 0,29.63 -359.02,0 0,-29.63 z"
           style="opacity:0.5;fill:#00a6ff;fill-opacity:1;fill-rule:nonzero;stroke:none"
           id="path3033" />
        <path
           inkscape:connector-curvature="0"
           d="m 115.64,206.84 377.49,0 0,29.63 -377.49,0 0,-29.63 z"
           style="opacity:0.5;fill:#00a6ff;fill-opacity:1;fill-rule:nonzero;stroke:none"
           id="path3035" />
        <path
           inkscape:connector-curvature="0"
           d="m 115.64,239.76 389.51,0 0,29.63 -389.51,0 0,-29.63 z"
           style="opacity:0.5;fill:#00a6ff;fill-opacity:1;fill-rule:nonzero;stroke:none"
           id="path3037" />
        <path
           inkscape:connector-curvature="0"
           d="m 115.64,272.69 398.31,0 0,29.63 -398.31,0 0,-29.63 z"
           style="opacity:0.5;fill:#00a6ff;fill-opacity:1;fill-rule:nonzero;stroke:none"
           id="path3039" />
        <path
           inkscape:connector-curvature="0"
           d="m 115.64,305.61 398.44,0 0,29.63 -398.44,0 0,-29.63 z"
           style="opacity:0.5;fill:#00a6ff;fill-opacity:1;fill-rule:nonzero;stroke:none"
           id="path3041" />
        <path
           inkscape:connector-curvature="0"
           d="m 115.64,338.53 403.94,0 0,29.63 -403.94,0 0,-29.63 z"
           style="opacity:0.5;fill:#00a6ff;fill-opacity:1;fill-rule:nonzero;stroke:none"
           id="path3043" />
        <path
           inkscape:connector-curvature="0"
           d="m 115.64,371.46 418.27,0 0,29.63 -418.27,0 0,-29.63 z"
           style="opacity:0.5;fill:#00a6ff;fill-opacity:1;fill-rule:nonzero;stroke:none"
           id="path3045" />
        <path
           inkscape:connector-curvature="0"
           d="m 115.64,404.38 446.61,0 0,29.63 -446.61,0 0,-29.63 z"
           style="opacity:0.5;fill:#00a6ff;fill-opacity:1;fill-rule:nonzero;stroke:none"
           id="path3047" />
        <path
           inkscape:connector-curvature="0"
           d="m 115.64,437.3 473.61,0 0,29.63 -473.61,0 0,-29.63 z"
           style="opacity:0.5;fill:#00a6ff;fill-opacity:1;fill-rule:nonzero;stroke:none"
           id="path3049" />
        <path
           inkscape:connector-curvature="0"
           d="m 115.64,470.23 485.97,0 0,29.63 -485.97,0 0,-29.63 z"
           style="opacity:0.5;fill:#00a6ff;fill-opacity:1;fill-rule:nonzero;stroke:none"
           id="path3051" />
        <text
           transform="matrix(1,0,0,-1,611.53,480.02)"
           id="text3053">
          <tspan
             style="font-size:14px;font-variant:normal;font-weight:normal;writing-mode:lr-tb;fill:#000000;fill-opacity:1;fill-rule:nonzero;stroke:none;font-family:Helvetica LT Std;-inkscape-font-specification:Helvetica"
             x="0 7.7839999 15.568 19.459999 27.243999"
             y="0"
             sodipodi:role="line"
             id="tspan3055">16.0%</tspan>
        </text>
        <text
           transform="matrix(1,0,0,-1,466.39,84.93)"
           id="text3057">
          <tspan
             style="font-size:14px;font-variant:normal;font-weight:normal;writing-mode:lr-tb;fill:#000000;fill-opacity:1;fill-rule:nonzero;stroke:none;font-family:Helvetica LT Std;-inkscape-font-specification:Helvetica"
             x="0 7.7839999 15.568 19.459999 27.243999"
             y="0"
             sodipodi:role="line"
             id="tspan3059">11.2%</tspan>
        </text>
        <text
           transform="matrix(1,0,0,-1,465.34,52.01)"
           id="text3061">
          <tspan
             style="font-size:14px;font-variant:normal;font-weight:normal;writing-mode:lr-tb;fill:#000000;fill-opacity:1;fill-rule:nonzero;stroke:none;font-family:Helvetica LT Std;-inkscape-font-specification:Helvetica"
             x="0 7.7839999 15.568 19.459999 27.243999"
             y="0"
             sodipodi:role="line"
             id="tspan3063">11.2%</tspan>
        </text>
        <text
           transform="matrix(1,0,0,-1,515.07,249.55)"
           id="text3065">
          <tspan
             style="font-size:14px;font-variant:normal;font-weight:normal;writing-mode:lr-tb;fill:#000000;fill-opacity:1;fill-rule:nonzero;stroke:none;font-family:Helvetica LT Std;-inkscape-font-specification:Helvetica"
             x="0 7.7839999 15.568 19.459999 27.243999"
             y="0"
             sodipodi:role="line"
             id="tspan3067">12.8%</tspan>
        </text>
        <text
           transform="matrix(1,0,0,-1,524,315.4)"
           id="text3069">
          <tspan
             style="font-size:14px;font-variant:normal;font-weight:normal;writing-mode:lr-tb;fill:#000000;fill-opacity:1;fill-rule:nonzero;stroke:none;font-family:Helvetica LT Std;-inkscape-font-specification:Helvetica"
             x="0 7.7839999 15.568 19.459999 27.243999"
             y="0"
             sodipodi:role="line"
             id="tspan3071">13.1%</tspan>
        </text>
        <text
           transform="matrix(1,0,0,-1,484.58,183.7)"
           id="text3073">
          <tspan
             style="font-size:14px;font-variant:normal;font-weight:normal;writing-mode:lr-tb;fill:#000000;fill-opacity:1;fill-rule:nonzero;stroke:none;font-family:Helvetica LT Std;-inkscape-font-specification:Helvetica"
             x="0 7.7839999 15.568 19.459999 27.243999"
             y="0"
             sodipodi:role="line"
             id="tspan3075">11.8%</tspan>
        </text>
        <text
           transform="matrix(1,0,0,-1,599.17,447.09)"
           id="text3077">
          <tspan
             style="font-size:14px;font-variant:normal;font-weight:normal;writing-mode:lr-tb;fill:#000000;fill-opacity:1;fill-rule:nonzero;stroke:none;font-family:Helvetica LT Std;-inkscape-font-specification:Helvetica"
             x="0 7.7839999 15.568 19.459999 27.243999"
             y="0"
             sodipodi:role="line"
             id="tspan3079">15.6%</tspan>
        </text>
        <text
           transform="matrix(1,0,0,-1,529.49,348.32)"
           id="text3081">
          <tspan
             style="font-size:14px;font-variant:normal;font-weight:normal;writing-mode:lr-tb;fill:#000000;fill-opacity:1;fill-rule:nonzero;stroke:none;font-family:Helvetica LT Std;-inkscape-font-specification:Helvetica"
             x="0 7.7839999 15.568 19.459999 27.243999"
             y="0"
             sodipodi:role="line"
             id="tspan3083">13.3%</tspan>
        </text>
        <text
           transform="matrix(1,0,0,-1,466.4,117.86)"
           id="text3085">
          <tspan
             style="font-size:14px;font-variant:normal;font-weight:normal;writing-mode:lr-tb;fill:#000000;fill-opacity:1;fill-rule:nonzero;stroke:none;font-family:Helvetica LT Std;-inkscape-font-specification:Helvetica"
             x="0 7.7839999 15.568 19.459999 27.243999"
             y="0"
             sodipodi:role="line"
             id="tspan3087">11.2%</tspan>
        </text>
        <text
           transform="matrix(1,0,0,-1,503.05,216.63)"
           id="text3089">
          <tspan
             style="font-size:14px;font-variant:normal;font-weight:normal;writing-mode:lr-tb;fill:#000000;fill-opacity:1;fill-rule:nonzero;stroke:none;font-family:Helvetica LT Std;-inkscape-font-specification:Helvetica"
             x="0 7.7839999 15.568 19.459999 27.243999"
             y="0"
             sodipodi:role="line"
             id="tspan3091">12.4%</tspan>
        </text>
        <text
           transform="matrix(1,0,0,-1,572.17,414.17)"
           id="text3093">
          <tspan
             style="font-size:14px;font-variant:normal;font-weight:normal;writing-mode:lr-tb;fill:#000000;fill-opacity:1;fill-rule:nonzero;stroke:none;font-family:Helvetica LT Std;-inkscape-font-specification:Helvetica"
             x="0 7.7839999 15.568 19.459999 27.243999"
             y="0"
             sodipodi:role="line"
             id="tspan3095">14.7%</tspan>
        </text>
        <text
           transform="matrix(1,0,0,-1,523.87,282.48)"
           id="text3097">
          <tspan
             style="font-size:14px;font-variant:normal;font-weight:normal;writing-mode:lr-tb;fill:#000000;fill-opacity:1;fill-rule:nonzero;stroke:none;font-family:Helvetica LT Std;-inkscape-font-specification:Helvetica"
             x="0 7.7839999 15.568 19.459999 27.243999"
             y="0"
             sodipodi:role="line"
             id="tspan3099">13.1%</tspan>
        </text>
        <text
           transform="matrix(1,0,0,-1,543.83,381.25)"
           id="text3101">
          <tspan
             style="font-size:14px;font-variant:normal;font-weight:normal;writing-mode:lr-tb;fill:#000000;fill-opacity:1;fill-rule:nonzero;stroke:none;font-family:Helvetica LT Std;-inkscape-font-specification:Helvetica"
             x="0 7.7839999 15.568 19.459999 27.243999"
             y="0"
             sodipodi:role="line"
             id="tspan3103">13.8%</tspan>
        </text>
        <text
           transform="matrix(1,0,0,-1,473.61,150.78)"
           id="text3105">
          <tspan
             style="font-size:14px;font-variant:normal;font-weight:normal;writing-mode:lr-tb;fill:#000000;fill-opacity:1;fill-rule:nonzero;stroke:none;font-family:Helvetica LT Std;-inkscape-font-specification:Helvetica"
             x="0 7.7839999 15.568 19.459999 27.243999"
             y="0"
             sodipodi:role="line"
             id="tspan3107">11.5%</tspan>
        </text>
      </g>
    </g>
    <g
       transform="matrix(1.25,0,0,-1.25,22.577582,734.83987)"
       id="g3111">
      <path
         inkscape:connector-curvature="0"
         d="m 115.64,37.28 0,467.52"
         style="fill:none;stroke:#000000;stroke-width:1.05999994;stroke-linecap:butt;stroke-linejoin:round;stroke-miterlimit:10;stroke-opacity:1;stroke-dasharray:none"
         id="path3113" />
    </g>
    <g
       transform="matrix(1.25,0,0,-1.25,22.577582,734.83987)"
       id="g3115">
      <text
         transform="matrix(1,0,0,-1,62.97,53.45)"
         id="text3117">
        <tspan
           style="font-size:10px;font-variant:normal;font-weight:normal;writing-mode:lr-tb;fill:#7f7f7f;fill-opacity:1;fill-rule:nonzero;stroke:none;font-family:Helvetica LT Std;-inkscape-font-specification:Helvetica"
           x="0 6.6700001 12.23 20.559999 26.120001 31.68 34.459999 40.02"
           y="0"
           sodipodi:role="line"
           id="tspan3119">Edmonton</tspan>
      </text>
      <text
         transform="matrix(1,0,0,-1,73.53,86.37)"
         id="text3121">
        <tspan
           style="font-size:10px;font-variant:normal;font-weight:normal;writing-mode:lr-tb;fill:#7f7f7f;fill-opacity:1;fill-rule:nonzero;stroke:none;font-family:Helvetica LT Std;-inkscape-font-specification:Helvetica"
           x="0 7.2199998 12.78 18.34 23.9 29.459999"
           y="0"
           sodipodi:role="line"
           id="tspan3123">Canada</tspan>
      </text>
      <text
         transform="matrix(1,0,0,-1,76.87,119.29)"
         id="text3125">
        <tspan
           style="font-size:10px;font-variant:normal;font-weight:normal;writing-mode:lr-tb;fill:#7f7f7f;fill-opacity:1;fill-rule:nonzero;stroke:none;font-family:Helvetica LT Std;-inkscape-font-specification:Helvetica"
           x="0 7.2199998 12.78 18.34 20.559999 26.120001"
           y="0"
           sodipodi:role="line"
           id="tspan3127">Regina</tspan>
      </text>
      <text
         transform="matrix(1,0,0,-1,66.87,152.22)"
         id="text3129">
        <tspan
           style="font-size:10px;font-variant:normal;font-weight:normal;writing-mode:lr-tb;fill:#7f7f7f;fill-opacity:1;fill-rule:nonzero;stroke:none;font-family:Helvetica LT Std;-inkscape-font-specification:Helvetica"
           x="0 9.4399996 11.66 17.219999 22.780001 25 30.559999 36.119999"
           y="0"
           sodipodi:role="line"
           id="tspan3131">Winnipeg</tspan>
      </text>
      <text
         transform="matrix(1,0,0,-1,69.65,185.14)"
         id="text3133">
        <tspan
           style="font-size:10px;font-variant:normal;font-weight:normal;writing-mode:lr-tb;fill:#7f7f7f;fill-opacity:1;fill-rule:nonzero;stroke:none;font-family:Helvetica LT Std;-inkscape-font-specification:Helvetica"
           x="0 8.3299999 13.89 19.450001 22.23 25.559999 31.120001 36.68"
           y="0"
           sodipodi:role="line"
           id="tspan3135">Montreal</tspan>
      </text>
      <text
         transform="matrix(1,0,0,-1,61.3,218.06)"
         id="text3137">
        <tspan
           style="font-size:10px;font-variant:normal;font-weight:normal;writing-mode:lr-tb;fill:#7f7f7f;fill-opacity:1;fill-rule:nonzero;stroke:none;font-family:Helvetica LT Std;-inkscape-font-specification:Helvetica"
           x="0 6.6700001 12.23 17.23 22.23 27.790001 30.57 36.130001 41.689999"
           y="0"
           sodipodi:role="line"
           id="tspan3139">Saskatoon</tspan>
      </text>
      <text
         transform="matrix(1,0,0,-1,78.29,250.99)"
         id="text3141">
        <tspan
           style="font-size:10px;font-variant:normal;font-weight:normal;writing-mode:lr-tb;fill:#7f7f7f;fill-opacity:1;fill-rule:nonzero;stroke:none;font-family:Helvetica LT Std;-inkscape-font-specification:Helvetica"
           x="0 7.2199998 12.78 15 17.219999 19.700001 25.26"
           y="0"
           sodipodi:role="line"
           id="tspan3143">Halifax</tspan>
      </text>
      <text
         transform="matrix(1,0,0,-1,61.7,283.91)"
         id="text3145">
        <tspan
           style="font-size:10px;font-variant:normal;font-weight:normal;writing-mode:lr-tb;fill:#7f7f7f;fill-opacity:1;fill-rule:nonzero;stroke:none;font-family:Helvetica LT Std;-inkscape-font-specification:Helvetica"
           x="0 5.9699998 11.53 17.09 22.09 27.65 33.209999 37.959999 43.52"
           y="0"
           sodipodi:role="line"
           id="tspan3147">Vancouver</tspan>
      </text>
      <text
         transform="matrix(1,0,0,-1,69.1,316.83)"
         id="text3149">
        <tspan
           style="font-size:10px;font-variant:normal;font-weight:normal;writing-mode:lr-tb;fill:#7f7f7f;fill-opacity:1;fill-rule:nonzero;stroke:none;font-family:Helvetica LT Std;-inkscape-font-specification:Helvetica"
           x="0 7.2199998 12.78 21.110001 23.33 25.549999 28.33 33.889999"
           y="0"
           sodipodi:role="line"
           id="tspan3151">Hamilton</tspan>
      </text>
      <text
         transform="matrix(1,0,0,-1,53.53,349.76)"
         id="text3153">
        <tspan
           style="font-size:10px;font-variant:normal;font-weight:normal;writing-mode:lr-tb;fill:#7f7f7f;fill-opacity:1;fill-rule:nonzero;stroke:none;font-family:Helvetica LT Std;-inkscape-font-specification:Helvetica"
           x="0 7.7800002 13.34 18.9 24.459999 30.02 35.02 37.799999 45.02 47.240002 50.02"
           y="0"
           sodipodi:role="line"
           id="tspan3155">Quebec City</tspan>
      </text>
      <text
         transform="matrix(1,0,0,-1,75.06,382.68)"
         id="text3157">
        <tspan
           style="font-size:10px;font-variant:normal;font-weight:normal;writing-mode:lr-tb;fill:#7f7f7f;fill-opacity:1;fill-rule:nonzero;stroke:none;font-family:Helvetica LT Std;-inkscape-font-specification:Helvetica"
           x="0 6.6700001 8.8900003 13.89 16.67 22.23 25.709999 27.93"
           y="0"
           sodipodi:role="line"
           id="tspan3159">Victoria</tspan>
      </text>
      <text
         transform="matrix(1,0,0,-1,75.29,415.6)"
         id="text3161">
        <tspan
           style="font-size:10px;font-variant:normal;font-weight:normal;writing-mode:lr-tb;fill:#7f7f7f;fill-opacity:1;fill-rule:nonzero;stroke:none;font-family:Helvetica LT Std;-inkscape-font-specification:Helvetica"
           x="0 4.9099998 10.47 13.8 19.360001 24.92 27.700001"
           y="0"
           sodipodi:role="line"
           id="tspan3163">Toronto</tspan>
      </text>
      <text
         transform="matrix(1,0,0,-1,14.4,448.53)"
         id="text3165">
        <tspan
           style="font-size:10px;font-variant:normal;font-weight:normal;writing-mode:lr-tb;fill:#7f7f7f;fill-opacity:1;fill-rule:nonzero;stroke:none;font-family:Helvetica LT Std;-inkscape-font-specification:Helvetica"
           x="0 7.7800002 10.56 13.34 18.700001 25.77 31.33 34.110001 39.669998 45.23 50.790001 53.57 61.349998 66.910004 69.690002 71.910004 77.470001 83.029999 88.589996"
           y="0"
           sodipodi:role="line"
           id="tspan3167">Ottawa and Gatineau</tspan>
      </text>
      <text
         transform="matrix(1,0,0,-1,73.8,481.45)"
         id="text3169">
        <tspan
           style="font-size:10px;font-variant:normal;font-weight:normal;writing-mode:lr-tb;fill:#7f7f7f;fill-opacity:1;fill-rule:nonzero;stroke:none;font-family:Helvetica LT Std;-inkscape-font-specification:Helvetica"
           x="0 7.2199998 12.78 15 20.559999 26.120001 29.75"
           y="0"
           sodipodi:role="line"
           id="tspan3171">Calgary</tspan>
      </text>
    </g>
    <g
       transform="matrix(1.25,0,0,-1.25,22.577582,734.83987)"
       id="g3185">
      <path
         inkscape:connector-curvature="0"
         d="m 115.64,37.28 606.96,0"
         style="fill:none;stroke:#000000;stroke-width:1.05999994;stroke-linecap:butt;stroke-linejoin:round;stroke-miterlimit:10;stroke-opacity:1;stroke-dasharray:none"
         id="path3187" />
    </g>
    <g
       transform="matrix(1.25,0,0,-1.25,22.577582,734.83987)"
       id="g3193">
      <text
         transform="matrix(1,0,0,-1,108.41,23.02)"
         id="text3195">
        <tspan
           style="font-size:10px;font-variant:normal;font-weight:normal;writing-mode:lr-tb;fill:#7f7f7f;fill-opacity:1;fill-rule:nonzero;stroke:none;font-family:Helvetica LT Std;-inkscape-font-specification:Helvetica"
           x="0 5.5599999"
           y="0"
           sodipodi:role="line"
           id="tspan3197">0%</tspan>
      </text>
      <text
         transform="matrix(1,0,0,-1,260.15,23.02)"
         id="text3199">
        <tspan
           style="font-size:10px;font-variant:normal;font-weight:normal;writing-mode:lr-tb;fill:#7f7f7f;fill-opacity:1;fill-rule:nonzero;stroke:none;font-family:Helvetica LT Std;-inkscape-font-specification:Helvetica"
           x="0 5.5599999"
           y="0"
           sodipodi:role="line"
           id="tspan3201">5%</tspan>
      </text>
      <text
         transform="matrix(1,0,0,-1,409.11,23.02)"
         id="text3203">
        <tspan
           style="font-size:10px;font-variant:normal;font-weight:normal;writing-mode:lr-tb;fill:#7f7f7f;fill-opacity:1;fill-rule:nonzero;stroke:none;font-family:Helvetica LT Std;-inkscape-font-specification:Helvetica"
           x="0 5.5599999 11.12"
           y="0"
           sodipodi:role="line"
           id="tspan3205">10%</tspan>
      </text>
      <text
         transform="matrix(1,0,0,-1,560.85,23.02)"
         id="text3207">
        <tspan
           style="font-size:10px;font-variant:normal;font-weight:normal;writing-mode:lr-tb;fill:#7f7f7f;fill-opacity:1;fill-rule:nonzero;stroke:none;font-family:Helvetica LT Std;-inkscape-font-specification:Helvetica"
           x="0 5.5599999 11.12"
           y="0"
           sodipodi:role="line"
           id="tspan3209">15%</tspan>
      </text>
      <text
         transform="matrix(1,0,0,-1,712.6,23.02)"
         id="text3211">
        <tspan
           style="font-size:10px;font-variant:normal;font-weight:normal;writing-mode:lr-tb;fill:#7f7f7f;fill-opacity:1;fill-rule:nonzero;stroke:none;font-family:Helvetica LT Std;-inkscape-font-specification:Helvetica"
           x="0 5.5599999 11.12"
           y="0"
           sodipodi:role="line"
           id="tspan3213">20%</tspan>
      </text>
    </g>
    <g
       transform="matrix(1.25,0,0,-1.25,22.577582,734.83987)"
       id="g3223">
      <text
         transform="matrix(1,0,0,-1,353.82,10.8)"
         id="text3225">
        <tspan
           style="font-size:12px;font-variant:normal;font-weight:normal;writing-mode:lr-tb;fill:#000000;fill-opacity:1;fill-rule:nonzero;stroke:none;font-family:Helvetica LT Std;-inkscape-font-specification:Helvetica"
           x="0 8.0039997 14.004 20.676001 27.348 34.02 44.015999 46.68 52.68 56.015999 64.68 71.351997 78.024002 84.024002 90.695999 97.367996 100.704 104.58 111.252 114.588 117.252 123.924"
           y="0"
           sodipodi:role="line"
           id="tspan3227">Economic Concentration</tspan>
      </text>
    </g>
    <rect
       style="fill:none;stroke:#000000;stroke-width:1.53500009;stroke-miterlimit:4;stroke-opacity:1;stroke-dasharray:1.535, 4.605;stroke-dashoffset:0"
       id="rect10412"
       width="795.37079"
       height="39.793655"
       x="53.052567"
       y="602.48499"
       ry="8.9238434" />
    <flowRoot
       xml:space="preserve"
       id="flowRoot11514"
       style="fill:black;stroke:none;stroke-opacity:1;stroke-width:1px;stroke-linejoin:miter;stroke-linecap:butt;fill-opacity:1;font-family:Sans;font-style:normal;font-weight:normal;font-size:13px;line-height:125%;letter-spacing:0px;word-spacing:0px"><flowRegion
         id="flowRegion11516"><rect
           id="rect11518"
           width="1024.9717"
           height="62.189289"
           x="11.516535"
           y="13.946156"
           style="letter-spacing:0px" /></flowRegion><flowPara
         id="flowPara11520"></flowPara></flowRoot>    <flowRoot
       xml:space="preserve"
       id="flowRoot11522"
       style="font-size:13px;font-style:normal;font-weight:normal;line-height:125%;letter-spacing:0px;word-spacing:0px;fill:#000000;fill-opacity:1;stroke:none;font-family:Sans"
       transform="translate(-4.606614,-1.1516536)"><flowRegion
         id="flowRegion11524"><rect
           id="rect11526"
           width="1020.365"
           height="66.795906"
           x="13.819842"
           y="12.794502"
           style="letter-spacing:0px" /></flowRegion><flowPara
         id="flowPara11528"
         style="font-size:16px;font-weight:bold;-inkscape-font-specification:Sans Bold">Figure 1.  In Terms of GDP by Industry, Edmonton is the Most Diversified Economy in Canada</flowPara><flowPara
         style="font-size:16px;font-weight:normal;-inkscape-font-specification:Sans Bold"
         id="flowPara11530">Index of Economic Concentration, 2014 (Higher Concentration = Lower Economic Diversity)</flowPara></flowRoot>  </g>
</svg>
